<?xml version="1.0" encoding="UTF-8" standalone="no"?>
<!DOCTYPE svg PUBLIC "-//W3C//DTD SVG 1.1//EN" "http://www.w3.org/Graphics/SVG/1.1/DTD/svg11.dtd">
<svg width="100%" height="100%" viewBox="0 0 1728 600" version="1.1" xmlns="http://www.w3.org/2000/svg" xmlns:xlink="http://www.w3.org/1999/xlink" xml:space="preserve" xmlns:serif="http://www.serif.com/" style="fill-rule:evenodd;clip-rule:evenodd;stroke-linejoin:round;stroke-miterlimit:1.41421;">
    <g transform="matrix(1.01138,0,0,1.02814,740.105,128.814)">
        <g transform="matrix(1.24715,0,0,1.24715,-30.2757,-41.1503)">
            <path d="M188,165.432C188,129.871 158.65,101 122.5,101C86.35,101 57,129.871 57,165.432L57,167.568C57,203.129 86.35,232 122.5,232C158.65,232 188,203.129 188,167.568L188,165.432Z" style="fill:rgb(39,194,193);"/>
        </g>
        <g transform="matrix(0.980954,0,0,0.964965,-1457.37,12.1305)">
            <text x="1576.67px" y="175.314px" style="font-family:'SourceHanSansCN-Regular', 'Source Han Sans CN', sans-serif;font-size:36px;fill:rgb(39,194,193);">客户</text>
        </g>
    </g>
    <g transform="matrix(1.01138,0,0,1.02814,1462.66,128.814)">
        <g transform="matrix(1.24715,0,0,1.24715,-30.2757,-41.1503)">
            <path d="M188,165.432C188,129.871 158.65,101 122.5,101C86.35,101 57,129.871 57,165.432L57,167.568C57,203.129 86.35,232 122.5,232C158.65,232 188,203.129 188,167.568L188,165.432Z" style="fill:rgb(38,38,38);"/>
        </g>
        <g transform="matrix(0.980954,0,0,0.964965,-1457.37,12.1305)">
            <text x="1576.67px" y="175.314px" style="font-family:'SourceHanSansCN-Regular', 'Source Han Sans CN', sans-serif;font-size:36px;fill:rgb(38,38,38);">客户</text>
        </g>
    </g>
    <g transform="matrix(1.01138,0,0,1.02814,17.5533,128.814)">
        <g transform="matrix(1.24715,0,0,1.24715,-30.2757,-41.1503)">
            <path d="M188,165.432C188,129.871 158.65,101 122.5,101C86.35,101 57,129.871 57,165.432L57,167.568C57,203.129 86.35,232 122.5,232C158.65,232 188,203.129 188,167.568L188,165.432Z" style="fill:rgb(39,107,173);"/>
        </g>
        <g transform="matrix(0.980954,0,0,0.964965,-1457.37,12.1305)">
            <text x="1576.67px" y="175.314px" style="font-family:'SourceHanSansCN-Regular', 'Source Han Sans CN', sans-serif;font-size:36px;fill:rgb(39,107,173);">客户</text>
        </g>
    </g>
</svg>
